HIERARCHY
ROOT Hips
{
 OFFSET 0.000000 0.000000 0.000000
 CHANNELS 6 Xposition Yposition Zposition Yrotation Xrotation Zrotation
 JOINT Chest
 {
  OFFSET 0.000000 9.585900 0.002600
  CHANNELS 3 Yrotation Xrotation Zrotation
  JOINT Chest2
  {
   OFFSET 0.000000 9.601200 -0.005300
   CHANNELS 3 Yrotation Xrotation Zrotation
   JOINT Chest3
   {
    OFFSET 0.000000 9.561800 0.000000
    CHANNELS 3 Yrotation Xrotation Zrotation
    JOINT Chest4
    {
     OFFSET 0.000000 9.552100 0.000000
     CHANNELS 3 Yrotation Xrotation Zrotation
     JOINT Neck
     {
      OFFSET 0.000000 14.453000 0.000000
      CHANNELS 3 Yrotation Xrotation Zrotation
      JOINT Head
      {
       OFFSET 0.000000 8.936500 -0.011300
       CHANNELS 3 Yrotation Xrotation Zrotation
       End Site
       {
        OFFSET 0.000000 17.073600 -0.006000
       }
      }
     }
     JOINT RightCollar
     {
      OFFSET -2.921100 9.558500 0.000000
      CHANNELS 3 Yrotation Xrotation Zrotation
      JOINT RightShoulder
      {
       OFFSET -13.519700 0.000000 0.000000
       CHANNELS 3 Yrotation Xrotation Zrotation
       JOINT RightElbow
       {
        OFFSET 0.000000 -29.696600 0.000000
        CHANNELS 3 Yrotation Xrotation Zrotation
        JOINT RightWrist
        {
         OFFSET 0.000000 -24.004700 0.000000
         CHANNELS 3 Yrotation Xrotation Zrotation
         End Site
         {
          OFFSET 0.000000 -17.728500 0.000000
         }
        }
       }
      }
     }
     JOINT LeftCollar
     {
      OFFSET 2.921100 9.558500 0.000000
      CHANNELS 3 Yrotation Xrotation Zrotation
      JOINT LeftShoulder
      {
       OFFSET 13.519700 0.000000 0.000000
       CHANNELS 3 Yrotation Xrotation Zrotation
       JOINT LeftElbow
       {
        OFFSET 0.000000 -29.696600 0.000000
        CHANNELS 3 Yrotation Xrotation Zrotation
        JOINT LeftWrist
        {
         OFFSET 0.000000 -24.004700 0.000000
         CHANNELS 3 Yrotation Xrotation Zrotation
         End Site
         {
          OFFSET 0.000000 -17.728500 0.000000
         }
        }
       }
      }
     }
    }
   }
  }
 }
 JOINT RightHip
 {
  OFFSET -7.771700 -0.012900 -0.001300
  CHANNELS 3 Yrotation Xrotation Zrotation
  JOINT RightKnee
  {
   OFFSET 0.000000 -40.869800 0.001200
   CHANNELS 3 Yrotation Xrotation Zrotation
   JOINT RightAnkle
   {
    OFFSET 0.000000 -39.717900 0.002100
    CHANNELS 3 Yrotation Xrotation Zrotation
    JOINT RightToe
    {
     OFFSET 0.000000 -4.965400 11.033500
     CHANNELS 3 Yrotation Xrotation Zrotation
     End Site
     {
      OFFSET 0.000000 -1.423100 5.872300
     }
    }
   }
  }
 }
 JOINT LeftHip
 {
  OFFSET 7.771700 -0.012900 -0.001300
  CHANNELS 3 Yrotation Xrotation Zrotation
  JOINT LeftKnee
  {
   OFFSET 0.000000 -40.869800 0.001200
   CHANNELS 3 Yrotation Xrotation Zrotation
   JOINT LeftAnkle
   {
    OFFSET 0.000000 -39.717900 0.002100
    CHANNELS 3 Yrotation Xrotation Zrotation
    JOINT LeftToe
    {
     OFFSET 0.000000 -4.965400 11.033500
     CHANNELS 3 Yrotation Xrotation Zrotation
     End Site
     {
      OFFSET 0.000000 -1.423100 5.872300
     }
    }
   }
  }
 }
}
MOTION
Frames: 12
Frame Time: 0.008333
-22.850028 46.964169 27.153656 175.406221 -28.226970 -4.192947 0.726176 18.575748 1.496057 0.015605 2.055326 0.136548 0.009498 3.404695 0.229971 0.152597 15.916911 1.109087 -1.047909 16.302355 -2.722923 -1.095022 -5.469757 -4.523350 -1.809226 1.047391 -3.139010 -16.851463 -9.000614 -18.379744 -147.976280 -61.570472 179.824727 1.890832 -8.386954 -36.230305 -0.542270 -0.579107 2.631025 -0.391645 -2.320869 14.589339 122.463709 -83.780413 -154.437682 -4.399847 13.831956 10.492730 -3.855222 -58.105593 -5.886592 -178.900731 80.527249 -169.912986 -4.907799 -15.961915 -5.153746 -0.042170 -0.412553 0.005361 -6.993516 -59.619562 15.795626 -118.277033 80.565898 -121.876952 7.084668 -8.906289 3.355363 0.511767 0.548985 0.163232
-22.860546 46.962169 27.147594 175.381160 -28.206027 -4.161821 0.715838 18.554078 1.471968 0.027077 2.055147 0.134410 0.009003 3.403385 0.230289 0.148866 15.914171 1.110382 -1.092461 16.332969 -2.644648 -1.099503 -5.442964 -4.504616 -1.865875 1.058092 -3.129101 -16.723387 -8.978472 -18.345422 -147.919699 -61.629945 179.807263 1.889282 -8.380537 -36.249646 -0.547995 -0.574739 2.630812 -0.415769 -2.319436 14.593102 122.427014 -83.773484 -154.410703 -4.427571 13.816267 10.410784 -3.758142 -58.127308 -5.950460 -178.861157 80.544255 -169.882528 -4.918109 -15.917569 -5.119630 -0.040651 -0.405056 0.003169 -7.027253 -59.628572 15.791058 -118.393278 80.580534 -122.006531 7.133682 -8.924377 3.332535 0.490175 0.546109 0.173690
-22.870192 46.960671 27.140749 175.377135 -28.192093 -4.150990 0.697329 18.540296 1.459783 0.019307 2.053388 0.136114 -0.018969 3.400534 0.236650 0.180796 15.914984 1.099693 -1.123787 16.355197 -2.590722 -1.120809 -5.412536 -4.459445 -1.860987 1.062601 -3.135402 -16.685354 -8.961515 -18.320637 -147.753626 -61.683946 179.711545 1.881635 -8.375842 -36.267696 -0.570251 -0.569353 2.640575 -0.420860 -2.310217 14.586265 122.416293 -83.765314 -154.372919 -4.444251 13.806102 10.358781 -3.688983 -58.144631 -6.013986 -178.894555 80.557539 -169.912518 -4.913698 -15.826178 -5.105867 -0.048002 -0.444080 0.007249 -7.063831 -59.632520 15.795914 -118.452910 80.581642 -122.071536 7.162476 -8.941864 3.312882 0.482652 0.548161 0.178144
-22.880193 46.958597 27.135049 175.373855 -28.173438 -4.145255 0.691529 18.521664 1.454273 0.001669 2.052893 0.139691 -0.010029 3.401094 0.234045 0.128456 15.909211 1.117981 -1.091293 16.368572 -2.606995 -1.171869 -5.376852 -4.370424 -1.841278 1.068813 -3.160032 -16.617224 -8.947511 -18.306817 -147.574842 -61.734098 179.610041 1.866792 -8.368554 -36.285830 -0.549163 -0.564082 2.618476 -0.401340 -2.300941 14.574644 122.433787 -83.762178 -154.430286 -4.431865 13.808058 10.406711 -3.630885 -58.171253 -6.049772 -178.827394 80.570405 -169.859632 -4.910173 -15.714618 -5.080358 -0.045952 -0.420001 0.009035 -7.094199 -59.644123 15.806650 -118.491339 80.578080 -122.112230 7.174322 -8.954910 3.307527 0.475342 0.549552 0.175281
-22.890768 46.955853 27.130788 175.366839 -28.148913 -4.141493 0.665244 18.501963 1.446145 0.000814 2.051731 0.140295 0.004010 3.398608 0.232619 0.117745 15.906475 1.122328 -1.117006 16.384365 -2.559967 -1.190535 -5.358228 -4.329389 -1.912789 1.080243 -3.133046 -16.488640 -8.953486 -18.317683 -147.379066 -61.784215 179.490882 1.849916 -8.359083 -36.303667 -0.568110 -0.560566 2.621844 -0.382533 -2.293071 14.562610 122.447334 -83.759684 -154.479734 -4.425280 13.797222 10.411660 -3.516568 -58.204725 -6.102943 -178.728722 80.584485 -169.766501 -4.930234 -15.591220 -5.032090 -0.041027 -0.425383 0.014476 -7.109929 -59.665691 15.818112 -118.523112 80.571171 -122.140975 7.173236 -8.963999 3.301053 0.477348 0.549458 0.179815
-22.902577 46.952804 27.127262 175.363506 -28.122690 -4.138429 0.641460 18.479457 1.439329 -0.000373 2.050688 0.140855 -0.027776 3.400460 0.237450 0.161679 15.901969 1.111990 -1.153640 16.396462 -2.504942 -1.176293 -5.357196 -4.344486 -1.926468 1.083158 -3.126586 -16.432519 -8.939016 -18.302933 -147.172940 -61.834752 179.357106 1.834866 -8.349611 -36.315070 -0.603060 -0.556447 2.639146 -0.384055 -2.277472 14.556268 122.351989 -83.756580 -154.431596 -4.414376 13.784336 10.459864 -3.456572 -58.243570 -6.130654 -178.634828 80.597663 -169.691401 -4.933977 -15.452674 -5.005426 -0.043246 -0.453952 0.022884 -7.125409 -59.689442 15.826128 -118.557837 80.571471 -122.178825 7.184950 -8.970469 3.301996 0.476322 0.548580 0.181541
-22.914455 46.950126 27.123560 175.361391 -28.102012 -4.140244 0.610116 18.464465 1.432589 -0.000748 2.049983 0.141676 -0.016696 3.399258 0.237613 0.148576 15.899159 1.120305 -1.163715 16.405090 -2.481677 -1.220874 -5.341020 -4.267470 -1.916458 1.084996 -3.136574 -16.379251 -8.918209 -18.291556 -146.978824 -61.879721 179.233770 1.824654 -8.339118 -36.316454 -0.619144 -0.549045 2.642292 -0.371851 -2.265102 14.544367 122.298483 -83.755115 -154.399485 -4.409300 13.770140 10.478792 -3.417338 -58.278150 -6.147401 -178.563153 80.609430 -169.638855 -4.928875 -15.302330 -4.992104 -0.044629 -0.485958 0.032954 -7.158658 -59.705655 15.839537 -118.598360 80.572074 -122.219596 7.216939 -8.982338 3.290099 0.468319 0.551419 0.180725
-22.926756 46.947465 27.120328 175.366400 -28.081624 -4.146171 0.558918 18.457974 1.424752 0.020343 2.042287 0.140033 0.000229 3.395684 0.236071 0.126100 15.902066 1.129498 -1.178530 16.408498 -2.455560 -1.267126 -5.330367 -4.195524 -1.936884 1.098830 -3.126485 -16.299152 -8.912270 -18.292515 -146.818826 -61.919722 179.140863 1.820791 -8.328912 -36.309792 -0.637958 -0.546560 2.650061 -0.417285 -2.227025 14.549814 122.354753 -83.727250 -154.379622 -4.422075 13.775741 10.412505 -3.414181 -58.311843 -6.148256 -178.543928 80.621100 -169.643516 -4.922790 -15.157125 -4.993640 -0.045612 -0.509161 0.044156 -7.200339 -59.723827 15.854101 -118.674797 80.577327 -122.296122 7.243254 -8.988736 3.276434 0.466121 0.549964 0.181886
-22.938356 46.944829 27.117827 175.374670 -28.060444 -4.159044 0.541968 18.441220 1.432009 0.006800 2.046100 0.141135 -0.002068 3.395092 0.237590 0.084170 15.902092 1.150678 -1.164475 16.407238 -2.457980 -1.297045 -5.325598 -4.151656 -1.878159 1.094377 -3.168323 -16.259018 -8.876805 -18.270054 -146.816637 -61.936988 179.150961 1.766131 -8.299259 -36.264420 -0.618746 -0.540261 2.636235 -0.413882 -2.218318 14.534393 122.317959 -83.731227 -154.358392 -4.422662 13.776340 10.408987 -3.386013 -58.339637 -6.173774 -178.555211 80.634096 -169.651090 -4.917392 -15.031805 -5.006012 -0.042981 -0.514235 0.056534 -7.232742 -59.745302 15.872638 -118.749125 80.582034 -122.363918 7.241999 -8.993458 3.266541 0.472947 0.548537 0.189955
-22.950730 46.942262 27.115599 175.382525 -28.040194 -4.165761 0.524271 18.425174 1.433940 -0.004400 2.048598 0.144137 -0.004563 3.393794 0.238878 0.076359 15.899370 1.158009 -1.177019 16.409576 -2.437322 -1.327623 -5.321753 -4.108825 -1.875391 1.109150 -3.176081 -16.191937 -8.851697 -18.251862 -146.845007 -61.951693 179.182479 1.727744 -8.271374 -36.215748 -0.649403 -0.520593 2.658232 -0.389696 -2.221971 14.508892 122.301000 -83.740873 -154.362599 -4.403456 13.766234 10.449219 -3.322155 -58.364807 -6.220022 -178.528986 80.644415 -169.619651 -4.916524 -14.933729 -5.003369 -0.043101 -0.498180 0.065153 -7.245542 -59.767088 15.875860 -118.820565 80.588800 -122.429236 7.229099 -8.996176 3.264318 0.495648 0.546632 0.195824
-22.962657 46.940173 27.113119 175.395257 -28.024654 -4.173684 0.483503 18.423720 1.437150 0.004402 2.042744 0.139945 -0.007326 3.392276 0.240452 0.081618 15.895211 1.156451 -1.194457 16.412997 -2.403853 -1.358546 -5.320211 -4.067560 -1.885379 1.127588 -3.175024 -16.122881 -8.821102 -18.229208 -146.811988 -61.990991 179.189580 1.750188 -8.271418 -36.200907 -0.644002 -0.518166 2.651793 -0.415577 -2.213500 14.529210 122.246581 -83.732202 -154.295165 -4.397800 13.769647 10.451344 -3.308194 -58.381056 -6.231950 -178.517954 80.656019 -169.622796 -4.913521 -14.872250 -5.002689 -0.043377 -0.460699 0.069019 -7.252577 -59.785421 15.873504 -118.865538 80.589525 -122.467284 7.217339 -8.994482 3.263308 0.488134 0.541574 0.202537
-22.973032 46.937911 27.111837 175.402099 -28.005427 -4.183338 0.474492 18.406650 1.444368 -0.020600 2.054916 0.157053 0.003486 3.383153 0.230456 0.084013 15.891555 1.154120 -1.206909 16.417071 -2.369841 -1.388052 -5.321415 -4.028293 -1.896774 1.146443 -3.174235 -16.052894 -8.788067 -18.206374 -146.813489 -62.026395 179.229842 1.772638 -8.266602 -36.187594 -0.661417 -0.511044 2.657271 -0.419010 -2.209709 14.541684 122.239303 -83.749684 -154.302732 -4.386182 13.762410 10.455298 -3.306075 -58.399798 -6.219091 -178.711215 80.675607 -169.838371 -4.944061 -14.835062 -4.990069 -0.054473 -0.424384 0.071443 -7.263304 -59.807891 15.883258 -118.903656 80.587967 -122.499972 7.211047 -8.993363 3.262121 0.503370 0.537427 0.210370
